<svg width="60" height="61" viewBox="0 0 60 61" fill="none" xmlns="http://www.w3.org/2000/svg">
<path d="M59.074 57.1H60.074V56.1H59.074V57.1ZM59.074 61V62H60.074V61H59.074ZM44.878 61H43.878V62H44.878V61ZM44.878 57.1V56.1H43.878V57.1H44.878ZM51.352 57.1V58.1H52.9804L52.2439 56.6477L51.352 57.1ZM40.276 35.26L41.1679 34.8077L40.8901 34.26H40.276V35.26ZM17.422 35.26V34.26H16.7539L16.4981 34.8773L17.422 35.26ZM8.374 57.1L7.45014 56.7173L6.87729 58.1H8.374V57.1ZM14.536 57.1H15.536V56.1H14.536V57.1ZM14.536 61V62H15.536V61H14.536ZM0.34 61H-0.66V62H0.34V61ZM0.34 57.1V56.1H-0.66V57.1H0.34ZM6.658 57.1V58.1H7.47519L7.63796 57.2992L6.658 57.1ZM17.344 4.528L18.324 4.72719L18.5677 3.528H17.344V4.528ZM11.338 4.528H10.338V5.528H11.338V4.528ZM11.338 0.627996V-0.372004H10.338V0.627996H11.338ZM40.12 0.627996L41.0932 0.398133L40.9113 -0.372004H40.12V0.627996ZM53.458 57.1L52.4848 57.3299L52.6667 58.1H53.458V57.1ZM19.06 31.36L18.1371 30.9749L17.5591 32.36H19.06V31.36ZM38.248 31.36V32.36H39.8769L39.1397 30.9074L38.248 31.36ZM27.718 10.612L28.6097 10.1594L27.6294 8.22774L26.7951 10.2269L27.718 10.612ZM58.074 57.1V61H60.074V57.1H58.074ZM59.074 60H44.878V62H59.074V60ZM45.878 61V57.1H43.878V61H45.878ZM44.878 58.1H51.352V56.1H44.878V58.1ZM52.2439 56.6477L41.1679 34.8077L39.3841 35.7123L50.4601 57.5523L52.2439 56.6477ZM40.276 34.26H17.422V36.26H40.276V34.26ZM16.4981 34.8773L7.45014 56.7173L9.29786 57.4827L18.3459 35.6427L16.4981 34.8773ZM8.374 58.1H14.536V56.1H8.374V58.1ZM13.536 57.1V61H15.536V57.1H13.536ZM14.536 60H0.34V62H14.536V60ZM1.34 61V57.1H-0.66V61H1.34ZM0.34 58.1H6.658V56.1H0.34V58.1ZM7.63796 57.2992L18.324 4.72719L16.364 4.32881L5.67804 56.9008L7.63796 57.2992ZM17.344 3.528H11.338V5.528H17.344V3.528ZM12.338 4.528V0.627996H10.338V4.528H12.338ZM11.338 1.628H40.12V-0.372004H11.338V1.628ZM39.1468 0.85786L52.4848 57.3299L54.4312 56.8701L41.0932 0.398133L39.1468 0.85786ZM53.458 58.1H59.074V56.1H53.458V58.1ZM19.06 32.36H38.248V30.36H19.06V32.36ZM39.1397 30.9074L28.6097 10.1594L26.8263 11.0646L37.3563 31.8126L39.1397 30.9074ZM26.7951 10.2269L18.1371 30.9749L19.9829 31.7451L28.6409 10.9971L26.7951 10.2269Z" fill="#F3EAEA"/>
</svg>
